<svg id="svg178" height="512" viewBox="0 0 512 512" width="512" xmlns="http://www.w3.org/2000/svg" xmlns:svg="http://www.w3.org/2000/svg"><g id="g3000" fill-rule="evenodd" transform="matrix(1.002 0 0 1.002 -628.48 51.956)"><g id="g929" stroke-width="8.849" transform="matrix(.998 0 0 .998 627.355 -51.858)"><path id="path923" d="m256 73.488281c-5.79059 0-11.58027.09521-15.99414.285157-24.66579 1.06146-49.00209 4.581105-72.68359 10.40039l64.57421 64.585942c2.69832-.22212 5.40134-.41078 8.11133-.55665 8.82272-.47484 23.16165-.47484 31.98438 0 67.72706 3.6453 132.1983 30.34934 182.66601 75.66211 6.57437 5.90286 16.6774 5.9398 22.92578-.30859l29.94141-29.94336c6.24838-6.24839 6.27247-16.40736-.23828-22.38086-64.49732-59.17502-147.8413-93.6957-235.29102-97.458982-4.41384-.189944-10.20548-.285157-15.99609-.285157zm-188.71875 51.445309c-22.275641 13.12378-43.270996 28.59569-62.5664062 46.29883-6.5107611 5.9735-6.4886259 16.13247-.2402344 22.38086l29.9433596 29.94336c6.248391 6.24839 16.351416 6.21145 22.925781.30859 19.647009-17.64022 41.425606-32.4404 64.68359-44.17578zm245.23828 104.4668 79.60352 79.61719 10.26757-10.26758c6.2484-6.24839 6.28207-16.42944-.39648-22.21289-25.95202-22.47384-56.60833-38.52592-89.47461-47.13672zm-134.11914 6.67383c-24.88282 9.23483-48.08335 22.87354-68.39453 40.46289-6.67848 5.78352-6.64291 15.9645-.39453 22.21289l29.9414 29.94336c6.2484 6.24839 16.33318 6.16778 23.21289.62891 22.06165-17.76188 48.75446-28.85573 76.9043-31.9668zm77.59961 135.02734c-5.78438 0-11.56896.47022-15.87695 1.41211-8.61431 1.88346-16.82703 5.2854-24.25 10.04492-7.42441 4.76045-7.37339 15.07974-1.125 21.32813l29.93945 29.93945a16.000003 16.000003 0 0 0 22.62695 0l29.93946-29.93945c6.24839-6.24839 6.2994-16.56768-1.125-21.32813-7.42297-4.75953-15.63764-8.16146-24.25196-10.04492-4.30799-.94189-10.09256-1.41211-15.87695-1.41211z" fill="#1e90ff"/><path id="path1376" d="m256.19141 73.490234v74.359376c5.72515.003 11.439.11876 15.80078.35351 67.72706 3.6453 132.1983 30.34934 182.66601 75.66211 6.57437 5.90286 16.6774 5.9398 22.92578-.30859l29.94141-29.94336c6.24838-6.24839 6.27247-16.40736-.23828-22.38086-64.49732-59.17502-147.8413-93.695699-235.29102-97.458982-4.36424-.187809-10.07931-.281088-15.80468-.283204zm-256.00000375 105.568356c-.49425446 2.20724-.48890489 4.50507 0 6.72852zm312.33007375 50.3418 79.60157 79.61719 10.26757-10.26758c6.24839-6.24839 6.28207-16.42944-.39648-22.21289-25.95174-22.47359-56.60707-38.52555-89.47266-47.13672zm-56.33007 141.70508v67.40625a16.000003 16.000003 0 0 0 11.12304-4.68555l29.93946-29.93945c6.24839-6.24839 6.2994-16.56768-1.125-21.32813-7.42297-4.75953-15.63764-8.16146-24.25196-10.04492-4.2602-.93144-9.96549-1.39789-15.68554-1.4082z" fill="#0584ff"/></g><g id="g1007" transform="matrix(-.749 -.057 .057 .749 1041.878 -4.558)"><rect id="rect955" fill="#f6616a" height="619.224" rx="52.667" ry="45.274" stroke-width=".984" transform="matrix(.707 .707 -.707 .707 0 0)" width="93.529" x="315.273" y="-309.592"/><path id="rect955-7" d="m-59.265625-105.62695c-.01246 0-.02465.002-.03711.002.0063.60273.02148 1.19504.02148 1.80469v652.88867c0 .61031-.01519 1.20326-.02148 1.80664h.0078c23.611705-.001 42.619899-21.41009 42.621094-48.00195l.02539-560.503909c.0012-26.591862-19.005482-47.997531-42.617187-47.996091z" fill="#f64650" stroke-width=".967" transform="matrix(-.776 -.776 -.667 .667 358.495 61.547)"/></g></g></svg>